<?xml version="1.0" standalone="no"?>
<!DOCTYPE svg PUBLIC "-//W3C//DTD SVG 20010904//EN"
 "http://www.w3.org/TR/2001/REC-SVG-20010904/DTD/svg10.dtd">
<svg version="1.0" xmlns="http://www.w3.org/2000/svg"
 width="840.000000pt" height="885.000000pt" viewBox="0 0 840.000000 885.000000"
 preserveAspectRatio="xMidYMid meet">
<metadata>
Created by potrace 1.16, written by Peter Selinger 2001-2019
</metadata>
<g transform="translate(0.000000,885.000000) scale(0.100000,-0.100000)"
fill="#000000" stroke="none">
<path d="M2105 8444 c-172 -21 -227 -30 -334 -56 -520 -125 -966 -439 -1278
-898 -98 -145 -205 -377 -262 -569 l-31 -104 0 -2393 0 -2393 35 -116 c101
-331 265 -610 510 -863 335 -347 753 -561 1240 -634 73 -10 483 -13 2190 -13
1993 0 2106 1 2210 18 455 77 839 267 1159 577 345 334 555 746 633 1240 17
108 18 237 18 2185 0 1951 -1 2077 -18 2185 -39 242 -107 461 -207 660 -111
222 -217 368 -399 551 -317 318 -693 515 -1151 600 l-125 24 -2080 1 c-1144 1
-2093 0 -2110 -2z m4090 -475 c230 -20 405 -68 610 -170 453 -225 767 -633
887 -1155 l22 -99 4 -2060 c2 -1509 0 -2085 -8 -2155 -28 -230 -121 -489 -246
-686 -217 -342 -576 -608 -960 -710 -229 -61 -80 -57 -2229 -61 -2045 -4
-2156 -3 -2343 37 -493 104 -912 429 -1141 885 -57 114 -109 264 -143 410
l-22 100 -4 2060 c-2 1511 0 2085 8 2155 26 212 106 450 212 630 76 130 136
207 248 323 277 288 652 465 1045 496 157 13 3918 13 4060 0z"/>
<path d="M6200 7019 c-167 -33 -325 -190 -361 -360 -16 -74 -6 -202 21 -272
48 -127 168 -241 295 -282 77 -25 208 -26 287 -2 122 37 254 158 300 277 30
78 36 221 13 306 -63 234 -308 381 -555 333z"/>
<path d="M3970 6309 c-729 -74 -1360 -581 -1594 -1281 -58 -174 -85 -307 -95
-481 -27 -424 81 -825 317 -1178 427 -638 1203 -955 1957 -798 793 165 1394
817 1495 1622 19 146 8 454 -19 591 -196 969 -1081 1624 -2061 1525z m510
-498 c139 -35 209 -60 325 -118 391 -194 658 -541 757 -984 33 -150 33 -418 0
-568 -63 -283 -188 -516 -381 -710 -198 -200 -412 -319 -701 -392 -121 -30
-406 -38 -540 -15 -596 104 -1039 535 -1167 1136 -25 120 -25 410 0 530 126
593 566 1026 1152 1134 122 23 442 15 555 -13z"/>
</g>
</svg>
